<?xml version="1.0" encoding="utf-8"?>
<!-- Generator: Adobe Illustrator 17.0.0, SVG Export Plug-In . SVG Version: 6.00 Build 0)  -->
<!DOCTYPE svg PUBLIC "-//W3C//DTD SVG 1.1//EN" "http://www.w3.org/Graphics/SVG/1.1/DTD/svg11.dtd">
<svg version="1.1" id="Layer_1" xmlns="http://www.w3.org/2000/svg" xmlns:xlink="http://www.w3.org/1999/xlink" x="0px" y="0px"
	 width="414.876px" height="248.76px" viewBox="0 0 414.876 248.76" enable-background="new 0 0 414.876 248.76"
	 xml:space="preserve">
<g id="toolbar">
</g>
<g>
	<polygon fill="#D1D3D4" points="16.642,135.038 13.356,131.678 51.327,94.55 51.327,87.685 66.801,72.216 66.801,50.549 
		72.901,41.529 72.901,8.723 77.6,8.723 77.6,42.968 71.5,51.987 71.5,74.162 56.026,89.633 56.026,96.525 	"/>
</g>
<g>
	<g>
		<polygon fill="#DA4B3F" points="64.192,129.405 59.492,129.405 59.492,91.313 74.274,75.992 83.555,75.992 102.891,53.642 
			121.154,53.642 121.154,58.341 105.038,58.341 85.703,80.692 75.191,80.692 64.192,92.091 		"/>
	</g>
</g>
<g>
	<polygon fill="#FFFFFF" points="92.497,160.887 82.277,151.583 82.277,128.43 68.09,116.401 68.09,91.354 75.11,84.163 
		93.103,84.163 98.432,78.833 101.756,82.156 95.051,88.86 76.945,88.86 72.788,93.188 72.788,114.226 86.979,126.251 
		86.979,149.511 87.749,150.212 95.658,157.414 	"/>
</g>
<g>
	<g>
		<polygon fill="#DA4B3F" points="35.939,93.384 32.727,89.955 59.057,65.296 59.057,16.7 63.756,16.7 63.756,67.334 		"/>
	</g>
</g>
<g>
	<path fill="#A7A9AC" d="M61.843,127.739c-4.133,0-7.491,3.357-7.491,7.498c0,4.138,3.357,7.49,7.491,7.49
		c4.143,0,7.494-3.353,7.494-7.49C69.337,131.097,65.986,127.739,61.843,127.739z"/>
</g>
<g>
	<path fill="#A7A9AC" d="M39.714,135.526c-4.145,0-7.498,3.367-7.498,7.501c0,4.14,3.353,7.491,7.498,7.491
		c4.136,0,7.489-3.352,7.489-7.491C47.204,138.894,43.85,135.526,39.714,135.526z"/>
</g>
<g>
	<circle fill="#D1D3D4" cx="39.714" cy="143.029" r="3.749"/>
</g>
<g>
	<path fill="#A7A9AC" d="M61.843,157.777c-4.133,0-7.491,3.349-7.491,7.487c0,4.14,3.357,7.5,7.491,7.5
		c4.143,0,7.494-3.36,7.494-7.5C69.337,161.13,65.986,157.777,61.843,157.777z"/>
</g>
<g>
	<g>
		<path fill="#DA4B3F" d="M61.843,161.522c-2.068,0-3.748,1.676-3.748,3.742c0,2.074,1.68,3.752,3.748,3.752
			c2.077,0,3.75-1.678,3.75-3.752C65.592,163.198,63.92,161.522,61.843,161.522z"/>
	</g>
</g>
<g>
	<path fill="#A7A9AC" d="M11.25,129.456c-4.148,0-7.498,3.352-7.498,7.488c0,4.14,3.351,7.498,7.498,7.498
		c4.14,0,7.487-3.358,7.487-7.498C18.736,132.808,15.391,129.456,11.25,129.456z"/>
</g>
<g>
	<g>
		<path fill="#DA4B3F" d="M11.25,133.193c-2.074,0-3.75,1.682-3.75,3.754c0,2.073,1.676,3.75,3.75,3.75
			c2.059,0,3.744-1.677,3.744-3.75C14.995,134.875,13.31,133.193,11.25,133.193z"/>
	</g>
</g>
<g>
	<path fill="#A7A9AC" d="M105.789,70.259c-4.134,0-7.487,3.354-7.487,7.498c0,4.137,3.349,7.489,7.487,7.489
		c4.149,0,7.498-3.354,7.498-7.489C113.286,73.611,109.937,70.259,105.789,70.259z"/>
</g>
<g>
	<path fill="#D1D3D4" d="M105.789,74.007c-2.071,0-3.744,1.68-3.744,3.75c0,2.059,1.673,3.747,3.744,3.747
		c2.074,0,3.753-1.688,3.753-3.747C109.538,75.687,107.86,74.007,105.789,74.007z"/>
</g>
<g>
	<path fill="#A7A9AC" d="M127.065,48.506c-4.141,0-7.494,3.352-7.494,7.487c0,4.148,3.353,7.501,7.494,7.501
		c4.147,0,7.496-3.354,7.496-7.501C134.562,51.855,131.212,48.506,127.065,48.506z"/>
</g>
<g>
	<g>
		<path fill="#DA4B3F" d="M127.065,52.247c-2.073,0-3.75,1.674-3.75,3.744c0,2.078,1.676,3.747,3.75,3.747
			c2.069,0,3.746-1.669,3.746-3.747C130.811,53.921,129.134,52.247,127.065,52.247z"/>
	</g>
</g>
<g>
	<path fill="#A7A9AC" d="M83.312,92.698c-4.146,0-7.497,3.363-7.497,7.493c0,4.14,3.351,7.499,7.497,7.499
		c4.137,0,7.488-3.359,7.488-7.499C90.799,96.062,87.453,92.698,83.312,92.698z"/>
</g>
<g>
	<path fill="#D1D3D4" d="M83.312,96.444c-2.072,0-3.75,1.682-3.75,3.75c0,2.074,1.678,3.75,3.75,3.75
		c2.065,0,3.741-1.676,3.741-3.75C87.053,98.126,85.376,96.444,83.312,96.444z"/>
</g>
<g>
	<g>
		<polygon fill="#DA4B3F" points="103.908,102.541 90.799,102.541 90.799,97.844 101.87,97.844 151.138,45.208 154.569,48.418 		"/>
	</g>
</g>
<g>
	<path fill="#A7A9AC" d="M30.577,88.635c-4.144,0-7.5,3.354-7.5,7.491c0,4.134,3.357,7.496,7.5,7.496
		c4.137,0,7.491-3.362,7.491-7.496C38.068,91.989,34.715,88.635,30.577,88.635z"/>
</g>
<g>
	<path fill="#A7A9AC" d="M97.703,155.841c-4.139,0-7.492,3.355-7.492,7.502c0,4.127,3.353,7.487,7.492,7.487
		c4.144,0,7.494-3.36,7.494-7.487C105.199,159.196,101.85,155.841,97.703,155.841z"/>
</g>
<g enable-background="new    ">
	<path fill="#DA4B3F" d="M113.189,96.386h11.603v26.338h30.481V96.386h11.604v65.199h-11.604v-28.916h-30.481v28.916h-11.603V96.386
		z"/>
	<path fill="#DA4B3F" d="M201.687,96.386h10.037l28.087,65.199H226.55l-6.077-14.918h-28.271l-5.894,14.918h-12.985L201.687,96.386z
		 M216.42,136.721l-10.037-26.521l-10.222,26.521H216.42z"/>
	<path fill="#DA4B3F" d="M291.658,111.673c-1.72-2.333-3.96-4.036-6.723-5.111c-2.763-1.073-5.465-1.611-8.104-1.611
		c-3.377,0-6.446,0.614-9.209,1.842c-2.763,1.229-5.143,2.917-7.137,5.064c-1.996,2.15-3.531,4.667-4.604,7.552
		c-1.075,2.887-1.611,6.018-1.611,9.393c0,3.562,0.521,6.815,1.565,9.762c1.043,2.947,2.532,5.479,4.466,7.598
		s4.251,3.761,6.953,4.927c2.7,1.167,5.739,1.75,9.116,1.75c3.5,0,6.599-0.691,9.302-2.072c2.7-1.382,4.88-3.207,6.538-5.479
		l9.301,6.538c-2.887,3.623-6.416,6.432-10.59,8.427c-4.176,1.994-9.057,2.992-14.643,2.992c-5.097,0-9.777-0.845-14.044-2.532
		c-4.268-1.688-7.936-4.052-11.004-7.091c-3.071-3.039-5.465-6.66-7.184-10.866c-1.719-4.205-2.578-8.855-2.578-13.952
		c0-5.217,0.905-9.93,2.717-14.135c1.81-4.205,4.296-7.782,7.459-10.729c3.161-2.947,6.891-5.218,11.188-6.814
		c4.297-1.597,8.963-2.395,13.998-2.395c2.086,0,4.267,0.2,6.538,0.599c2.271,0.399,4.45,1.013,6.538,1.842
		c2.087,0.828,4.052,1.857,5.894,3.085c1.842,1.229,3.408,2.702,4.697,4.42L291.658,111.673z"/>
	<path fill="#DA4B3F" d="M308.695,96.386h11.603v28.18h0.276l27.259-28.18h15.655l-30.481,30.113l32.507,35.086h-16.3l-28.64-32.691
		h-0.276v32.691h-11.603V96.386z"/>
</g>
<path fill="#FFFFFF" d="M105.485,236.853c-4.912,0-8.933-0.845-12.063-2.532c-3.131-1.688-5.617-3.821-7.459-6.4
	c-1.842-2.578-3.117-5.387-3.822-8.426c-0.707-3.039-1.059-5.908-1.059-8.61v-40.888h6.63v40.151c0,2.64,0.307,5.203,0.921,7.689
	c0.613,2.486,1.611,4.696,2.993,6.63c1.381,1.934,3.208,3.5,5.479,4.696c2.271,1.197,5.065,1.796,8.38,1.796
	c3.315,0,6.108-0.599,8.38-1.796c2.271-1.196,4.098-2.763,5.479-4.696c1.381-1.934,2.379-4.143,2.993-6.63
	c0.613-2.486,0.921-5.05,0.921-7.689v-40.151h6.63v40.888c0,2.702-0.354,5.571-1.059,8.61c-0.706,3.039-1.98,5.848-3.822,8.426
	c-1.842,2.579-4.344,4.713-7.505,6.4C114.34,236.008,110.334,236.853,105.485,236.853z"/>
<path fill="#FFFFFF" d="M172.618,223.96h0.092l21.825-53.964h10.13v65.199h-6.63V178.56h-0.184l-23.575,56.635h-3.499
	l-23.575-56.635h-0.185v56.635h-6.63v-65.199h10.13L172.618,223.96z"/>
<path fill="#FFFFFF" d="M215.07,235.195h-7.275l28.18-65.199h6.445l27.995,65.199h-7.366l-7.184-17.129h-33.704L215.07,235.195z
	 M224.647,211.989h28.731l-14.366-34.626L224.647,211.989z"/>
<path fill="#FFFFFF" d="M305.133,180.494c-1.413-1.964-3.224-3.545-5.434-4.742s-4.881-1.796-8.012-1.796
	c-1.597,0-3.223,0.246-4.881,0.737c-1.657,0.492-3.162,1.243-4.512,2.256c-1.352,1.013-2.44,2.287-3.27,3.821
	c-0.829,1.535-1.243,3.347-1.243,5.434c0,2.088,0.397,3.808,1.192,5.157c0.796,1.35,1.853,2.502,3.169,3.453
	c1.316,0.952,2.817,1.735,4.501,2.348c1.684,0.615,3.443,1.229,5.28,1.842c2.265,0.737,4.544,1.536,6.841,2.395
	c2.296,0.86,4.362,1.98,6.2,3.361c1.836,1.382,3.337,3.131,4.499,5.249c1.163,2.118,1.745,4.805,1.745,8.058
	c0,3.255-0.621,6.063-1.861,8.427c-1.242,2.364-2.854,4.313-4.835,5.848c-1.982,1.535-4.247,2.67-6.794,3.407
	c-2.549,0.736-5.111,1.104-7.69,1.104c-1.966,0-3.93-0.199-5.893-0.599c-1.966-0.399-3.838-0.998-5.618-1.795
	c-1.781-0.798-3.439-1.811-4.973-3.039c-1.535-1.228-2.887-2.64-4.052-4.236l5.71-4.236c1.411,2.334,3.391,4.282,5.94,5.848
	c2.547,1.565,5.539,2.349,8.978,2.349c1.657,0,3.346-0.261,5.065-0.783c1.719-0.52,3.27-1.319,4.651-2.394
	c1.381-1.074,2.517-2.394,3.407-3.96c0.889-1.565,1.335-3.392,1.335-5.479c0-2.271-0.446-4.158-1.335-5.664
	c-0.891-1.503-2.072-2.763-3.546-3.775c-1.474-1.013-3.162-1.856-5.064-2.532c-1.904-0.675-3.899-1.35-5.986-2.026
	c-2.149-0.675-4.268-1.441-6.354-2.302c-2.088-0.859-3.96-1.98-5.618-3.361c-1.657-1.382-2.992-3.085-4.006-5.111
	c-1.013-2.025-1.52-4.512-1.52-7.459c0-3.131,0.629-5.832,1.888-8.104c1.258-2.27,2.901-4.143,4.927-5.617s4.267-2.547,6.723-3.224
	c2.455-0.675,4.881-1.013,7.275-1.013c4.42,0,8.196,0.783,11.327,2.349c3.131,1.566,5.493,3.423,7.091,5.571L305.133,180.494z"/>
<path fill="#FFFFFF" d="M350.624,180.494c-1.413-1.964-3.224-3.545-5.434-4.742s-4.881-1.796-8.012-1.796
	c-1.597,0-3.223,0.246-4.881,0.737c-1.657,0.492-3.162,1.243-4.512,2.256c-1.352,1.013-2.441,2.287-3.27,3.821
	c-0.829,1.535-1.243,3.347-1.243,5.434c0,2.088,0.397,3.808,1.192,5.157c0.796,1.35,1.853,2.502,3.169,3.453
	c1.316,0.952,2.817,1.735,4.501,2.348c1.684,0.615,3.443,1.229,5.28,1.842c2.265,0.737,4.544,1.536,6.841,2.395
	c2.296,0.86,4.362,1.98,6.2,3.361c1.836,1.382,3.337,3.131,4.499,5.249c1.163,2.118,1.745,4.805,1.745,8.058
	c0,3.255-0.621,6.063-1.861,8.427c-1.242,2.364-2.853,4.313-4.835,5.848s-4.247,2.67-6.794,3.407
	c-2.549,0.736-5.111,1.104-7.69,1.104c-1.966,0-3.93-0.199-5.893-0.599c-1.966-0.399-3.838-0.998-5.618-1.795
	c-1.781-0.798-3.439-1.811-4.973-3.039c-1.535-1.228-2.887-2.64-4.052-4.236l5.71-4.236c1.411,2.334,3.391,4.282,5.939,5.848
	c2.547,1.565,5.539,2.349,8.978,2.349c1.657,0,3.346-0.261,5.065-0.783c1.719-0.52,3.27-1.319,4.651-2.394
	c1.381-1.074,2.517-2.394,3.407-3.96c0.889-1.565,1.335-3.392,1.335-5.479c0-2.271-0.446-4.158-1.335-5.664
	c-0.891-1.503-2.072-2.763-3.546-3.775c-1.474-1.013-3.162-1.856-5.065-2.532c-1.904-0.675-3.899-1.35-5.986-2.026
	c-2.149-0.675-4.268-1.441-6.353-2.302c-2.088-0.859-3.96-1.98-5.618-3.361c-1.657-1.382-2.992-3.085-4.006-5.111
	c-1.013-2.025-1.52-4.512-1.52-7.459c0-3.131,0.629-5.832,1.888-8.104c1.258-2.27,2.901-4.143,4.927-5.617s4.267-2.547,6.723-3.224
	c2.455-0.675,4.881-1.013,7.275-1.013c4.42,0,8.196,0.783,11.327,2.349c3.131,1.566,5.493,3.423,7.091,5.571L350.624,180.494z"/>
<polygon fill="#FFFFFF" points="87.019,126.277 81.082,126.277 81.082,169.996 87.712,169.996 87.712,126.794 "/>
<g>
	<path fill="#D1D3D4" d="M161.65,54.117c-4.133,0-7.49,3.35-7.49,7.488s3.357,7.498,7.49,7.498c4.143,0,7.494-3.359,7.494-7.498
		C169.144,57.471,165.792,54.117,161.65,54.117z"/>
</g>
<g>
	<path fill="#D1D3D4" d="M147.394,68.374c-4.133,0-7.491,3.349-7.491,7.487c0,4.139,3.357,7.498,7.491,7.498
		c4.143,0,7.494-3.359,7.494-7.498C154.888,71.727,151.537,68.374,147.394,68.374z"/>
</g>
<path fill="#939598" d="M387.4,174.931l2.513-1.668l-1.185-2.945l-2.968,0.539l-1.877-1.916l0.599-2.953l-2.918-1.246l-1.718,2.479
	l-2.683-0.028l-1.667-2.511l-2.943,1.186l0.535,2.965l-1.913,1.878l-2.956-0.599l-1.244,2.92l2.478,1.718l-0.027,2.682l-2.51,1.666
	l1.184,2.944l2.965-0.537l1.878,1.916l-0.599,2.953l2.922,1.244l1.717-2.477l2.682,0.028l1.667,2.511l2.943-1.185l-0.538-2.968
	l1.915-1.874l2.956,0.597l1.244-2.921l-2.477-1.718L387.4,174.931z M378.362,181.013c-2.642,0-4.785-2.142-4.785-4.781
	c0-2.643,2.143-4.782,4.785-4.782c2.639,0,4.779,2.142,4.779,4.782C383.143,178.872,381.001,181.013,378.362,181.013z"/>
<path fill="#808285" d="M403.988,161.812l2.138-1.588l-1.184-2.542l-2.591,0.614l-1.744-1.6l0.39-2.634l-2.634-0.96l-1.397,2.265
	l-2.365,0.101l-1.588-2.135l-2.539,1.183l0.611,2.59l-1.601,1.745l-2.633-0.389l-0.96,2.633l2.265,1.398l0.103,2.366l-2.135,1.586
	l1.182,2.54l2.589-0.612l1.745,1.602l-0.389,2.63l2.633,0.961l1.398-2.264l2.365-0.102l1.587,2.135l2.541-1.183l-0.614-2.591
	l1.601-1.742l2.635,0.387l0.959-2.633l-2.265-1.399L403.988,161.812z M396.267,166.863c-1.923,0.102-3.564-1.374-3.668-3.295
	c-0.102-1.923,1.375-3.563,3.297-3.666c1.921-0.102,3.563,1.373,3.664,3.297C399.662,165.119,398.187,166.76,396.267,166.863z"/>
<path fill="#A7A9AC" d="M408.876,139.625l1.746-5.487l-6.013-3.089l-0.031-5.179l5.969-3.17l-1.817-5.465l-6.677,1.032l-3.07-4.169
	l2.964-6.074l-4.682-3.354l-4.799,4.761l-4.935-1.569l-1.168-6.655l-5.764,0.039l-1.08,6.67l-4.915,1.633l-4.858-4.698l-4.639,3.417
	l3.044,6.031l-3.016,4.208l-6.689-0.941l-1.745,5.489l6.009,3.092l0.031,5.176l-5.966,3.17l1.815,5.467l6.68-1.033l3.07,4.17
	l-2.968,6.07l4.684,3.358l4.798-4.759l4.935,1.565l1.17,6.657l5.761-0.039l1.082-6.672l4.913-1.63l4.861,4.696l4.636-3.414
	l-3.045-6.037l3.017-4.208L408.876,139.625z M383.66,135.374c-3.747,0-6.78-3.033-6.78-6.778c0-3.743,3.033-6.78,6.78-6.78
	c3.744,0,6.778,3.037,6.778,6.78C390.438,132.341,387.404,135.374,383.66,135.374z"/>
</svg>
